<svg aria-hidden="true" style="position: absolute; width: 0; height: 0; overflow: hidden;" version="1.1" xmlns="http://www.w3.org/2000/svg" xmlns:xlink="http://www.w3.org/1999/xlink">
<defs>
<symbol id="facebook" viewBox="0 0 20 20">
<path d="M10 0.4c-5.302 0-9.6 4.298-9.6 9.6s4.298 9.6 9.6 9.6 9.6-4.298 9.6-9.6-4.298-9.6-9.6-9.6zM12.274 7.034h-1.443c-0.171 0-0.361 0.225-0.361 0.524v1.042h1.805l-0.273 1.486h-1.532v4.461h-1.703v-4.461h-1.545v-1.486h1.545v-0.874c0-1.254 0.87-2.273 2.064-2.273h1.443v1.581z"></path>
</symbol>

<symbol id="facebook_white" viewBox="0 0 20 20">
<path fill="#fff" d="M10 0.4c-5.302 0-9.6 4.298-9.6 9.6s4.298 9.6 9.6 9.6 9.6-4.298 9.6-9.6-4.298-9.6-9.6-9.6zM12.274 7.034h-1.443c-0.171 0-0.361 0.225-0.361 0.524v1.042h1.805l-0.273 1.486h-1.532v4.461h-1.703v-4.461h-1.545v-1.486h1.545v-0.874c0-1.254 0.87-2.273 2.064-2.273h1.443v1.581z"></path>
</symbol>

<symbol id="fb_black" viewBox="0 0 32 32">
<path d="M16 32c8.837 0 16-7.163 16-16s-7.163-16-16-16-16 7.163-16 16 7.163 16 16 16zM17.098 8.325c-0.805 0.022-1.655 0.216-2.255 0.786-0.496 0.458-0.745 1.126-0.801 1.793-0.017 0.477-0.015 0.955-0.012 1.433 0.002 0.359 0.004 0.717-0.003 1.075-0.22 0.002-0.441 0.001-0.663 0.001-0.295-0.001-0.59-0.001-0.884 0.003 0 0.285 0 0.571 0.001 0.857 0.001 0.573 0.002 1.147-0.001 1.722 0.294 0.004 0.589 0.004 0.884 0.003 0.221-0 0.442-0.001 0.663 0.001 0.005 1.138 0.004 2.276 0.003 3.414-0.001 1.422-0.002 2.845 0.008 4.267 0.605-0.004 1.208-0.004 1.812-0.003 0.453 0 0.906 0.001 1.359-0.001 0.004-1.28 0.003-2.56 0.002-3.839s-0.002-2.559 0.002-3.839c0.305-0.002 0.61-0.001 0.915-0.001 0.407 0.001 0.814 0.001 1.22-0.003 0.127-0.857 0.235-1.722 0.294-2.59-0.402-0.002-0.805-0.002-1.207-0.002s-0.805 0-1.207-0.002c0-0.15-0-0.3-0-0.45-0.001-0.45-0.001-0.9 0.004-1.35 0.063-0.347 0.421-0.611 0.768-0.589h1.647c0.004-0.898 0.004-1.793 0-2.691-0.212 0-0.425-0-0.637-0-0.637-0.001-1.275-0.001-1.912 0.004z"></path>
</symbol>

<symbol id="fb_white" viewBox="0 0 32 32">
<path fill="#fff" style="fill: var(--color1, #fff)" d="M16 32c8.837 0 16-7.163 16-16s-7.163-16-16-16-16 7.163-16 16 7.163 16 16 16zM17.098 8.325c-0.805 0.022-1.655 0.216-2.255 0.786-0.496 0.458-0.745 1.126-0.801 1.793-0.017 0.477-0.015 0.955-0.012 1.433 0.002 0.359 0.004 0.717-0.003 1.075-0.22 0.002-0.441 0.001-0.663 0.001-0.295-0.001-0.59-0.001-0.884 0.003 0 0.285 0 0.571 0.001 0.857 0.001 0.573 0.002 1.147-0.001 1.722 0.294 0.004 0.589 0.004 0.884 0.003 0.221-0 0.442-0.001 0.663 0.001 0.005 1.138 0.004 2.276 0.003 3.414-0.001 1.422-0.002 2.845 0.008 4.267 0.605-0.004 1.208-0.004 1.812-0.003 0.453 0 0.906 0.001 1.359-0.001 0.004-1.28 0.003-2.56 0.002-3.839s-0.002-2.559 0.002-3.839c0.305-0.002 0.61-0.001 0.915-0.001 0.407 0.001 0.814 0.001 1.22-0.003 0.127-0.857 0.235-1.722 0.294-2.59-0.402-0.002-0.805-0.002-1.207-0.002s-0.805 0-1.207-0.002c0-0.15-0-0.3-0-0.45-0.001-0.45-0.001-0.9 0.004-1.35 0.063-0.347 0.421-0.611 0.768-0.589h1.647c0.004-0.898 0.004-1.793 0-2.691-0.212 0-0.425-0-0.637-0-0.637-0.001-1.275-0.001-1.912 0.004z"></path>
</symbol>

<symbol id="insta_black" viewBox="0 0 32 32">
<path d="M16 32c8.837 0 16-7.163 16-16s-7.163-16-16-16c-8.837 0-16 7.163-16 16s7.163 16 16 16zM8 12.605c0-2.54 2.066-4.605 4.605-4.605h6.789c2.54 0 4.605 2.066 4.605 4.605v6.852c0 2.539-2.066 4.605-4.605 4.605h-6.789c-2.54 0-4.605-2.066-4.605-4.605v-6.852zM11.836 16.002c0-2.279 1.874-4.132 4.176-4.132s4.176 1.854 4.176 4.132c0 2.278-1.874 4.132-4.176 4.132s-4.176-1.854-4.176-4.132zM13.357 16.002c0 1.439 1.191 2.611 2.655 2.611s2.655-1.171 2.655-2.611c0-1.44-1.191-2.611-2.655-2.611s-2.655 1.171-2.655 2.611zM20.264 12.683c0.543 0 0.983-0.44 0.983-0.983s-0.44-0.983-0.983-0.983-0.983 0.44-0.983 0.983c0 0.543 0.44 0.983 0.983 0.983z"></path>
</symbol>

<symbol id="insta_white" viewBox="0 0 32 32">
<path fill="#fff" style="fill: var(--color1, #fff)" d="M16 32c8.837 0 16-7.163 16-16s-7.163-16-16-16c-8.837 0-16 7.163-16 16s7.163 16 16 16zM8 12.605c0-2.54 2.066-4.605 4.605-4.605h6.789c2.54 0 4.605 2.066 4.605 4.605v6.852c0 2.539-2.066 4.605-4.605 4.605h-6.789c-2.54 0-4.605-2.066-4.605-4.605v-6.852zM11.836 16.002c0-2.279 1.874-4.132 4.176-4.132s4.176 1.854 4.176 4.132c0 2.278-1.874 4.132-4.176 4.132s-4.176-1.854-4.176-4.132zM13.357 16.002c0 1.439 1.191 2.611 2.655 2.611s2.655-1.171 2.655-2.611c0-1.44-1.191-2.611-2.655-2.611s-2.655 1.171-2.655 2.611zM20.264 12.683c0.543 0 0.983-0.44 0.983-0.983s-0.44-0.983-0.983-0.983-0.983 0.44-0.983 0.983c0 0.543 0.44 0.983 0.983 0.983z"></path>
</symbol>
<symbol id="message" viewBox="0 0 32 32">
<path fill="#a77e58" stroke="#fff" style="stroke: var(--color1, #fff)" stroke-linejoin="round" stroke-linecap="round" stroke-miterlimit="10" stroke-width="1.8286" d="M10.301 12.981h11.063M10.301 16.431h11.063M4.398 22.928c-2.175-2.182-3.484-4.989-3.484-8.049 0-6.955 6.754-12.593 15.086-12.593s15.086 5.638 15.086 12.593c0 6.955-6.754 12.593-15.086 12.593-1.712 0-3.357-0.238-4.89-0.677l-0.138-0.013-6.37 2.933v-6.563l-0.204-0.223z"></path>
</symbol>
<symbol id="message_blue" viewBox="0 0 32 32">
<path fill="#fff" style="fill: var(--color1, #fff)" d="M16 27.52c6.362 0 11.52-5.158 11.52-11.52s-5.158-11.52-11.52-11.52c-6.362 0-11.52 5.158-11.52 11.52s5.158 11.52 11.52 11.52z"></path>
<path fill="#000000" style="fill: var(--color2, #000000)" d="M16 0c-8.832 0-16 7.168-16 16s7.168 16 16 16c8.832 0 16-7.168 16-16s-7.142-16-16-16zM24.832 9.574l-8.832 7.821-8.832-7.821h17.664zM5.965 10.675l6.042 5.325-6.035 5.325v-10.65h-0.006zM7.168 22.426l6.035-5.325 2.24 2.016c0.156 0.125 0.35 0.192 0.55 0.192s0.394-0.068 0.55-0.192l2.24-2.016 6.035 5.325h-17.651zM26.022 21.325l-5.997-5.325 6.035-5.325v10.65h-0.038z"></path>
</symbol>
<symbol id="phone_blue" viewBox="0 0 32 32">
<path fill="#000000" style="fill: var(--color3, #000000)" d="M16 0c-8.832 0-16 7.168-16 16s7.168 16 16 16c8.832 0 16-7.168 16-16s-7.142-16-16-16z"></path>
<path fill="#fff" style="fill: var(--color1, #fff)" d="M24.742 21.824l-3.981-4.045c-0.062-0.068-0.137-0.121-0.221-0.158s-0.174-0.056-0.266-0.056c-0.092 0-0.182 0.019-0.266 0.056s-0.159 0.091-0.221 0.158l-2.189 2.189c-0.442 0.435-1.094 0.435-1.536 0l-4.070-4.077c-0.104-0.099-0.186-0.218-0.243-0.35s-0.085-0.274-0.085-0.418 0.029-0.286 0.085-0.418c0.056-0.132 0.139-0.251 0.243-0.35l2.189-2.195c0.288-0.282 0.288-0.691 0-0.973l-4.006-3.949c-0.068-0.065-0.148-0.115-0.235-0.149s-0.181-0.049-0.274-0.046c-0.094 0.003-0.186 0.025-0.271 0.064s-0.162 0.095-0.225 0.163c-1.28 1.568-3.629 5.926 2.816 12.512l0.102 0.096 0.090 0.096c6.611 6.49 10.963 4.141 12.531 2.854 0.314-0.256 0.346-0.723 0.032-1.005z"></path>
</symbol>
<symbol id="telega_black" viewBox="0 0 32 32">
<path d="M16 32c-8.836 0-16-7.164-16-16s7.164-16 16-16c8.836 0 16 7.164 16 16s-7.164 16-16 16zM23.033 10.222c0.124-1.402-1.357-0.824-1.357-0.824-1.093 0.452-2.22 0.912-3.359 1.377-3.533 1.441-7.182 2.93-10.291 4.395-1.686 0.618-0.699 1.236-0.699 1.236l2.672 0.825c1.234 0.371 1.891-0.041 1.891-0.041l5.756-3.916c2.056-1.402 1.562-0.247 1.069 0.247l-4.317 4.122c-0.658 0.577-0.329 1.072-0.041 1.319 0.816 0.72 2.822 2.036 3.698 2.611 0.228 0.149 0.379 0.249 0.413 0.275 0.205 0.165 1.316 0.907 2.056 0.742s0.822-1.113 0.822-1.113l0.987-6.472c0.148-1.124 0.318-2.204 0.453-3.066 0.128-0.815 0.226-1.435 0.245-1.716z"></path>
</symbol>
<symbol id="telega_blue" viewBox="0 0 32 32">
<path fill="#000000" style="fill: var(--color4, #000000)" d="M16 32c8.837 0 16-7.163 16-16s-7.163-16-16-16c-8.837 0-16 7.163-16 16s7.163 16 16 16z"></path>
<path fill="#fff" style="fill: var(--color1, #fff)" d="M23.11 8.346l-17.088 6.246c-0.346 0.128-0.352 0.64-0.013 0.787l4.378 1.722 1.632 4.922c0.096 0.262 0.442 0.352 0.659 0.173l2.509-2.234 4.762 3.021c0.243 0.154 0.57 0.019 0.627-0.256l3.098-13.92c0.064-0.307-0.256-0.57-0.563-0.448v-0.013zM12.819 18.022l-0.275 2.534-1.325-3.898 9.325-5.862-7.725 7.226z"></path>
</symbol>
<symbol id="telega_white" viewBox="0 0 32 32">
<path fill="#fff" style="fill: var(--color1, #fff)" d="M16 32c-8.836 0-16-7.164-16-16s7.164-16 16-16c8.836 0 16 7.164 16 16s-7.164 16-16 16zM23.033 10.222c0.124-1.402-1.357-0.824-1.357-0.824-1.093 0.452-2.22 0.912-3.359 1.377-3.533 1.441-7.182 2.93-10.291 4.395-1.686 0.618-0.699 1.236-0.699 1.236l2.672 0.825c1.234 0.371 1.891-0.041 1.891-0.041l5.756-3.916c2.056-1.402 1.562-0.247 1.069 0.247l-4.317 4.122c-0.658 0.577-0.329 1.072-0.041 1.319 0.816 0.72 2.822 2.036 3.698 2.611 0.228 0.149 0.379 0.249 0.413 0.275 0.205 0.165 1.316 0.907 2.056 0.742s0.822-1.113 0.822-1.113l0.987-6.472c0.148-1.124 0.318-2.204 0.453-3.066 0.128-0.815 0.226-1.435 0.245-1.716z"></path>
</symbol>
<symbol id="V" viewBox="0 0 32 32">
<path fill="#a77e58" style="fill: var(--color5, #a77e58)" d="M16 32c8.837 0 16-7.163 16-16s-7.163-16-16-16c-8.837 0-16 7.163-16 16s7.163 16 16 16zM25.988 12.067l-1.976-2.135-9.812 9.085-6.212-5.752-1.976 2.135 8.188 7.582 11.788-10.915z"></path>
</symbol>
<symbol id="X" viewBox="0 0 32 32">
<path d="M1.968-0l-1.968 1.968 29.514 29.514 1.968-1.968-29.514-29.514z"></path>
<path d="M31.484 1.968l-1.968-1.968-29.514 29.514 1.968 1.968 29.514-29.514z"></path>
</symbol>

<symbol id="quotes-left" viewBox="0 0 32 32">
<path d="M7.031 14c3.866 0 7 3.134 7 7s-3.134 7-7 7-7-3.134-7-7l-0.031-1c0-7.732 6.268-14 14-14v4c-2.671 0-5.182 1.040-7.071 2.929-0.364 0.364-0.695 0.751-0.995 1.157 0.357-0.056 0.724-0.086 1.097-0.086zM25.031 14c3.866 0 7 3.134 7 7s-3.134 7-7 7-7-3.134-7-7l-0.031-1c0-7.732 6.268-14 14-14v4c-2.671 0-5.182 1.040-7.071 2.929-0.364 0.364-0.695 0.751-0.995 1.157 0.358-0.056 0.724-0.086 1.097-0.086z"></path>
</symbol>

<symbol id="arrow-right2" viewBox="0 0 32 32">
<path d="M19.414 27.414l10-10c0.781-0.781 0.781-2.047 0-2.828l-10-10c-0.781-0.781-2.047-0.781-2.828 0s-0.781 2.047 0 2.828l6.586 6.586h-19.172c-1.105 0-2 0.895-2 2s0.895 2 2 2h19.172l-6.586 6.586c-0.39 0.39-0.586 0.902-0.586 1.414s0.195 1.024 0.586 1.414c0.781 0.781 2.047 0.781 2.828 0z"></path>
</symbol>

<symbol id="menu-burger" viewBox="0 0 32 32">
<path d="M0 14h32v4h-32v-4z"></path>
<path d="M0 4.667h32v4h-32v-4z"></path>
<path d="M0 23.333h32v4h-32v-4z"></path>
</symbol>

</defs>
</svg>
